<?xml version="1.0" encoding="UTF-8"?>
<svg version="1.1" xmlns="http://www.w3.org/2000/svg" width="666" height="500">
<path d="M0 0 C219.78 0 439.56 0 666 0 C666 165 666 330 666 500 C446.22 500 226.44 500 0 500 C0 335 0 170 0 0 Z " fill="#000000" transform="translate(0,0)"/>
<path d="M0 0 C0.79664063 0.42410156 1.59328125 0.84820312 2.4140625 1.28515625 C11.25226389 6.591033 17.87441774 15.4549884 20.67651367 25.40136719 C21.24608249 27.98890153 21.73474994 30.57703849 22.1875 33.1875 C22.35475586 34.10426514 22.52201172 35.02103027 22.69433594 35.96557617 C23.92733598 42.96303602 24.73631565 49.89370677 25 57 C13.51404844 59.07711503 2.67733564 60.37443737 -9 60 C-9.10022461 59.24904053 -9.20044922 58.49808105 -9.30371094 57.72436523 C-9.77048862 54.2931259 -10.26002448 50.86550038 -10.75 47.4375 C-10.90726562 46.25607422 -11.06453125 45.07464844 -11.2265625 43.85742188 C-12.60920217 33.52308484 -12.60920217 33.52308484 -18.875 25.5625 C-21.85057282 24.77484837 -23.92327522 24.56925853 -27 25 C-30.42765324 27.06772585 -32.70709412 29.12128235 -34 33 C-34.96008448 44.37792419 -32.77406756 55.55989782 -31 66.75 C-30.35399596 70.91193899 -29.7154822 75.07501023 -29.078125 79.23828125 C-28.91040588 80.32907486 -28.74268677 81.41986847 -28.56988525 82.54371643 C-27.25199752 91.1786186 -26.03891165 99.82567569 -24.859375 108.48046875 C-24.68281372 109.76988373 -24.50625244 111.05929871 -24.32434082 112.38778687 C-23.6255335 117.49652109 -22.92747524 122.60527376 -22.24658203 127.71643066 C-21.77145187 131.27955369 -21.28509841 134.84099478 -20.796875 138.40234375 C-20.6595697 139.45874557 -20.5222644 140.5151474 -20.38079834 141.6035614 C-19.47814855 148.1021179 -18.54800564 154.76599284 -14.375 160.0625 C-10.47718161 161.60111252 -6.98270707 161.12878864 -3 160 C0.03676237 158.03875764 1.59174463 156.63466767 2.484375 153.06054688 C3.41927534 145.03827702 2.20626045 137.35854729 1 129.4375 C0.59702843 126.72881102 0.20334709 124.01909156 -0.1875 121.30859375 C-0.36667969 120.12064209 -0.54585938 118.93269043 -0.73046875 117.70874023 C-0.81941406 116.81485596 -0.90835938 115.92097168 -1 115 C1.01722227 112.98277773 4.84833172 113.31676786 7.625 113 C9.03392566 112.83393878 10.44278061 112.66727651 11.8515625 112.5 C12.55313477 112.41878906 13.25470703 112.33757812 13.97753906 112.25390625 C15.79065013 112.02628246 17.59562205 111.73589704 19.3984375 111.4375 C23.94991912 110.88460852 28.42177566 110.91709453 33 111 C35.31854958 123.28646288 37.39399063 135.46712614 37.4375 148 C37.44716797 148.87543457 37.45683594 149.75086914 37.46679688 150.65283203 C37.33481597 160.7280211 33.99862154 169.94684805 26.8515625 177.171875 C21.531446 182.01477175 16.67731894 185.7861432 9.625 187.625 C8.73039062 187.86476563 7.83578125 188.10453125 6.9140625 188.3515625 C-5.94654285 191.21330578 -23.18046714 192.7195595 -35 186 C-47.94474816 176.43508164 -54.10658914 164.58623186 -56.51306152 148.82836914 C-56.64829224 147.86447266 -56.78352295 146.90057617 -56.92285156 145.9074707 C-57.0794928 144.85867233 -57.23613403 143.80987396 -57.39752197 142.72929382 C-57.9069597 139.29639819 -58.39937309 135.8613227 -58.890625 132.42578125 C-59.24293621 130.01350403 -59.59595543 127.60133012 -59.949646 125.18925476 C-60.68661809 120.14457491 -61.41516579 115.09876998 -62.13769531 110.05200195 C-63.05884133 103.62255297 -64.00063509 97.19633469 -64.94882584 90.77082539 C-65.68124509 85.79166779 -66.40264273 80.81095964 -67.12084198 75.82973289 C-67.46356661 73.46166991 -67.80958659 71.09408118 -68.15912628 68.72701454 C-73.90382427 29.68769037 -73.90382427 29.68769037 -65 14 C-64.34 14 -63.68 14 -63 14 C-62.73445313 13.40960938 -62.46890625 12.81921875 -62.1953125 12.2109375 C-57.48623491 3.50068287 -47.80735897 0.36095875 -38.91259766 -2.46899414 C-26.88143246 -5.80927807 -11.1139224 -5.9261945 0 0 Z " fill="#4AA3DC" transform="translate(385,142)"/>
<path d="M0 0 C1.89613792 0.00544579 1.89613792 0.00544579 3.83058167 0.01100159 C5.27847328 0.01800331 5.27847328 0.01800331 6.75561523 0.02514648 C11.38550227 30.82264272 15.91191339 61.63354972 20.26513672 92.47143555 C20.89065754 96.89869519 21.52227092 101.32502668 22.15869141 105.75073242 C22.94758495 111.23717096 23.72620638 116.7249774 24.4976368 122.21389771 C24.78713185 124.26182972 25.08007436 126.30927801 25.37682915 128.35617065 C30.72039042 165.27938761 30.72039042 165.27938761 21.56811523 177.83764648 C14.26660376 186.43037262 5.5494715 190.63688267 -5.24438477 193.21264648 C-6.33674438 193.47416504 -6.33674438 193.47416504 -7.45117188 193.7409668 C-14.8377729 195.37338246 -21.69687745 195.31825356 -29.24438477 195.02514648 C-30.56438477 186.11514648 -31.88438477 177.20514648 -33.24438477 168.02514648 C-30.91375977 167.79827148 -28.58313477 167.57139648 -26.18188477 167.33764648 C-19.9224351 166.5925059 -15.81460091 165.48907853 -11.24438477 161.02514648 C-5.89151238 152.15643681 -10.25726511 138.70636602 -11.69360352 129.00952148 C-11.95135544 127.23164652 -12.20840499 125.4536696 -12.46479797 123.67559814 C-13.14237281 118.98758833 -13.82793478 114.30078422 -14.51568604 109.61425781 C-15.59614697 102.24386321 -16.66574312 94.8718803 -17.7340126 87.49971008 C-17.99883425 85.67226644 -18.26393812 83.84486368 -18.52932358 82.01750183 C-20.67808157 67.20743431 -22.69503363 52.3830009 -24.61198425 37.54119873 C-24.7065519 36.80975269 -24.80111956 36.07830666 -24.89855289 35.32469559 C-25.08194559 33.90466878 -25.26472885 32.48456311 -25.44685268 31.06437302 C-26.17646556 25.41962337 -27.0100897 19.792757 -27.88529968 14.16864014 C-28.27429228 10.76333089 -28.30376232 7.44967309 -28.24438477 4.02514648 C-26.05756317 3.54289318 -23.86989221 3.06449065 -21.68188477 2.58764648 C-20.4637207 2.32081055 -19.24555664 2.05397461 -17.99047852 1.77905273 C-11.89259913 0.55184656 -6.22461421 -0.02316993 0 0 Z " fill="#4AA3DC" transform="translate(289.244384765625,150.974853515625)"/>
<path d="M0 0 C0.87462891 0.00451172 1.74925781 0.00902344 2.65039062 0.01367188 C4.78779047 0.02535166 6.92515463 0.04328311 9.0625 0.0625 C9.0625 0.3925 9.0625 0.7225 9.0625 1.0625 C7.50015625 1.10117188 7.50015625 1.10117188 5.90625 1.140625 C-8.11881188 1.63209589 -22.57091002 2.53465195 -32.9375 13.0625 C-33.43507813 13.55878906 -33.93265625 14.05507812 -34.4453125 14.56640625 C-43.71992639 24.75737421 -44.39721106 36.92358921 -43.9375 50.0625 C-43.5293061 54.49375206 -42.89530091 58.87268286 -42.21484375 63.26953125 C-42.03403763 64.49412048 -41.85323151 65.71870972 -41.66694641 66.98040771 C-41.17987423 70.26783752 -40.68419747 73.55372321 -40.18397522 76.83916092 C-39.66229359 80.2765235 -39.150121 83.71530012 -38.63769531 87.15405273 C-38.53480886 87.84445176 -38.43192242 88.53485079 -38.3259182 89.246171 C-38.11741936 90.64531947 -37.90895574 92.04447318 -37.70052719 93.44363213 C-37.38636385 95.54925363 -37.07072816 97.65465066 -36.75491333 99.76002502 C-35.41848412 108.69036506 -34.15893613 117.62851342 -32.95703125 126.578125 C-32.65327222 128.8127708 -32.3493223 131.04739066 -32.04516602 133.28198242 C-31.61923999 136.41335773 -31.19784052 139.54490962 -30.79318237 142.67910767 C-28.64746681 159.26581871 -25.97553719 174.03506839 -13.0625 185.875 C-3.4194876 192.62510868 5.5901928 192.81498528 17.0625 193.0625 C17.0625 193.3925 17.0625 193.7225 17.0625 194.0625 C-9.62379479 195.01181483 -9.62379479 195.01181483 -20.875 185.3125 C-30.97732456 175.36983862 -34.91419215 163.84179149 -36.86035156 149.9699707 C-37.0169928 148.92117233 -37.17363403 147.87237396 -37.33502197 146.79179382 C-37.8444597 143.35889819 -38.33687309 139.9238227 -38.828125 136.48828125 C-39.18043621 134.07600403 -39.53345543 131.66383012 -39.887146 129.25175476 C-40.62411809 124.20707491 -41.35266579 119.16126998 -42.07519531 114.11450195 C-42.99634133 107.68505297 -43.93813509 101.25883469 -44.88632584 94.83332539 C-45.61874509 89.85416779 -46.34014273 84.87345964 -47.05834198 79.89223289 C-47.40106661 77.52416991 -47.74708659 75.15658118 -48.09662628 72.78951454 C-53.84132427 33.75019037 -53.84132427 33.75019037 -44.9375 18.0625 C-44.2775 18.0625 -43.6175 18.0625 -42.9375 18.0625 C-42.67195313 17.47210938 -42.40640625 16.88171875 -42.1328125 16.2734375 C-37.42524332 7.56597293 -27.74324617 4.41660157 -18.84741211 1.59448242 C-12.62469116 -0.13877962 -6.39754036 -0.06324565 0 0 Z " fill="#2E23C6" transform="translate(364.9375,137.9375)"/>
<path d="M0 0 C1.05058594 0.00902344 2.10117187 0.01804688 3.18359375 0.02734375 C3.96863281 0.03894531 4.75367188 0.05054688 5.5625 0.0625 C5.5625 0.3925 5.5625 0.7225 5.5625 1.0625 C-3.3475 2.0525 -12.2575 3.0425 -21.4375 4.0625 C-20.26878104 12.59270551 -19.09782562 21.12258268 -17.92258835 29.6518898 C-17.62577142 31.80689919 -17.32936225 33.96196439 -17.0329895 36.11703491 C-14.68538309 53.17638187 -12.28589874 70.22688817 -9.77591515 87.26316452 C-9.39239782 89.86687057 -9.00988443 92.47072231 -8.62763977 95.07461548 C-7.51270246 102.66539839 -6.39437698 110.2555712 -5.25657845 117.84296513 C-4.78486925 121.00024055 -4.32021897 124.15852832 -3.85721588 127.31709099 C-3.64149032 128.77785118 -3.42274667 130.23816967 -3.20061493 131.69796944 C0.35519492 155.08795818 0.35519492 155.08795818 -4.4375 162.0625 C-6.96847979 165.35277373 -10.51077146 166.9494116 -14.4375 168.0625 C-17.16364973 168.29126781 -19.69397012 168.20689631 -22.4375 168.0625 C-22.4375 167.7325 -22.4375 167.4025 -22.4375 167.0625 C-21.57125 166.815 -20.705 166.5675 -19.8125 166.3125 C-15.6591673 164.77422863 -11.67731702 163.0761355 -9.28300476 159.18743896 C-5.76837115 150.3543936 -9.53162794 138.19521001 -10.88671875 129.046875 C-11.14447068 127.26900003 -11.40152022 125.49102311 -11.65791321 123.71295166 C-12.33548804 119.02494185 -13.02105001 114.33813774 -13.70880127 109.65161133 C-14.7892622 102.28121673 -15.85885836 94.90923381 -16.92712784 87.5370636 C-17.19194949 85.70961996 -17.45705335 83.88221719 -17.72243881 82.05485535 C-19.8711968 67.24478783 -21.88814887 52.42035441 -23.80509949 37.57855225 C-23.89966714 36.84710621 -23.99423479 36.11566017 -24.09166813 35.3620491 C-24.27506082 33.9420223 -24.45784408 32.52191663 -24.63996792 31.10172653 C-25.36958079 25.45697689 -26.20320494 19.83011051 -27.07841492 14.20599365 C-27.46740751 10.80068441 -27.49687755 7.48702661 -27.4375 4.0625 C-25.2506784 3.58024669 -23.06300745 3.10184417 -20.875 2.625 C-19.65683594 2.35816406 -18.43867188 2.09132812 -17.18359375 1.81640625 C-11.4005797 0.65256714 -5.90268892 -0.06632235 0 0 Z " fill="#2E23C7" transform="translate(288.4375,150.9375)"/>
<path d="M0 0 C1.4540625 0.0309375 1.4540625 0.0309375 2.9375 0.0625 C3.05867188 1.24585938 3.17984375 2.42921875 3.3046875 3.6484375 C4.30308467 13.69403221 4.30308467 13.69403221 6.0625 23.625 C7.67332249 31.12498951 7.74032347 37.27174381 3.9375 44.0625 C0.10888383 48.02785246 -5.14314759 48.99270537 -10.5 49.1875 C-11.345625 49.14625 -12.19125 49.105 -13.0625 49.0625 C-10.72009392 47.89129696 -8.44839417 46.82437733 -6 45.875 C-3.00936072 44.02971193 -1.62943966 42.69466744 -0.46484375 39.359375 C1.26704113 29.47249821 -1.66734969 18.08433669 -3.13330078 8.26342773 C-3.26720215 7.34505127 -3.40110352 6.4266748 -3.5390625 5.48046875 C-3.66361816 4.65313232 -3.78817383 3.8257959 -3.91650391 2.97338867 C-3.96468262 2.34279541 -4.01286133 1.71220215 -4.0625 1.0625 C-3.0625 0.0625 -3.0625 0.0625 0 0 Z " fill="#2F25CA" transform="translate(388.0625,255.9375)"/>
<path d="M0 0 C5.59731932 -0.28951652 9.1683016 -0.18452849 14 3 C17.60076066 6.79098952 18.71889713 9.82293138 19.625 14.9375 C19.74270752 15.58340088 19.86041504 16.22930176 19.98168945 16.89477539 C21.16977606 23.56733539 22.11997258 30.2807318 23 37 C20.69 37 18.38 37 16 37 C15.89977539 36.24904053 15.79955078 35.49808105 15.69628906 34.72436523 C15.22951138 31.2931259 14.73997552 27.86550038 14.25 24.4375 C14.09273438 23.25607422 13.93546875 22.07464844 13.7734375 20.85742188 C12.83454571 14.41156865 12.00016145 9.23550543 8 4 C5.95459542 2.58102742 5.95459542 2.58102742 3.75 2.0625 C2.5125 1.711875 1.275 1.36125 0 1 C0 0.67 0 0.34 0 0 Z " fill="#2F25C7" transform="translate(360,165)"/>
<path d="M0 0 C2.31 0 4.62 0 7 0 C7.99 8.58 8.98 17.16 10 26 C12.97 26 15.94 26 19 26 C19 26.33 19 26.66 19 27 C14.05 27 9.1 27 4 27 C2.68 18.09 1.36 9.18 0 0 Z " fill="#2D24C1" transform="translate(256,319)"/>
<path d="M0 0 C5.75 1.875 5.75 1.875 8 3 C9.3734635 3.15004973 10.7528526 3.24838006 12.1328125 3.31640625 C12.93847656 3.35830078 13.74414062 3.40019531 14.57421875 3.44335938 C15.41597656 3.48267578 16.25773437 3.52199219 17.125 3.5625 C18.39923828 3.62727539 18.39923828 3.62727539 19.69921875 3.69335938 C21.79928223 3.79954236 23.89961948 3.90028497 26 4 C26 4.33 26 4.66 26 5 C22.77090994 5.05834353 19.54195662 5.09371115 16.3125 5.125 C15.40048828 5.14175781 14.48847656 5.15851563 13.54882812 5.17578125 C4.64275291 5.24055271 4.64275291 5.24055271 1 3 C0.67 2.01 0.34 1.02 0 0 Z " fill="#314AB1" transform="translate(356,327)"/>
</svg>